<svg xmlns="http://www.w3.org/2000/svg" width="320" height="200" viewBox="0 0 320 200" fill="none" aria-hidden="true">
  <defs>
    <linearGradient id="g" x1="0" y1="0" x2="320" y2="200" gradientUnits="userSpaceOnUse">
      <stop stop-color="#0a0f0a"/>
      <stop offset="0.5" stop-color="#050806"/>
      <stop offset="1" stop-color="#061208"/>
    </linearGradient>
  </defs>
  <rect width="320" height="200" fill="url(#g)"/>
  <g opacity="0.35" stroke="#39ff14" stroke-width="1">
    <line x1="24" y1="0" x2="24" y2="200"/>
    <line x1="52" y1="0" x2="52" y2="200"/>
    <line x1="80" y1="0" x2="80" y2="200"/>
    <line x1="108" y1="0" x2="108" y2="200"/>
    <line x1="136" y1="0" x2="136" y2="200"/>
    <line x1="164" y1="0" x2="164" y2="200"/>
    <line x1="192" y1="0" x2="192" y2="200"/>
    <line x1="220" y1="0" x2="220" y2="200"/>
    <line x1="248" y1="0" x2="248" y2="200"/>
    <line x1="276" y1="0" x2="276" y2="200"/>
  </g>
  <rect x="56" y="128" width="208" height="44" rx="6" stroke="#39ff14" stroke-opacity="0.45" fill="rgba(57,255,20,0.06)"/>
  <g fill="#39ff14" fill-opacity="0.85">
    <rect x="72" y="142" width="10" height="16" rx="1"/>
    <rect x="92" y="138" width="10" height="20" rx="1"/>
    <rect x="112" y="144" width="10" height="14" rx="1"/>
    <rect x="132" y="140" width="10" height="18" rx="1"/>
    <rect x="152" y="146" width="10" height="12" rx="1"/>
  </g>
  <circle cx="256" cy="56" r="28" stroke="#39ff14" stroke-opacity="0.35" fill="none" stroke-width="1.5"/>
</svg>
